<?xml version="1.0"?>
<svg version="1.1" xmlns="http://www.w3.org/2000/svg" width="169" height="71" style=""><path fill="#bdcfdb" d="M16.7841796875,59.7421875q0.169921875-4.587890625,0.29736328125-9.40234375t0.24072265625-9.50146484375t0.169921875-9.10498046875t0.056640625-8.2412109375q0.056640625-0.7646484375,1.3310546875-1.2177734375t3.04443359375-0.66552734375t3.73828125-0.26904296875t3.49755859375-0.056640625q0.33984375,0,1.416015625-0.0283203125l0.5380859375,0q0.8212890625,0,1.7275390625,0.056640625q1.189453125,0.0849609375,2.08154296875,0.3681640625t0.89208984375,0.8212890625q0,0.396484375-0.3115234375,0.63720703125t-0.72216796875,0.35400390625t-0.849609375,0.1416015625t-0.60888671875,0.0283203125q-2.662109375,0-5.267578125-0.0849609375q-0.7080078125-0.0283203125-1.4443359375-0.0283203125q-1.92578125,0-3.908203125,0.169921875q0.11328125,0.33984375,0.18408203125,2.05322265625t0.07080078125,3.86572265625t-0.0283203125,4.20556640625t0,3.15771484375l0,7.36328125q0.8779296875-0.056640625,1.7275390625-0.056640625l1.69921875,0l1.1328125-0.056640625q0.56640625-0.0283203125,1.189453125-0.0283203125q0.6513671875,0,1.3310546875,0.0283203125q1.359375,0.056640625,2.47802734375,0.32568359375t1.11865234375,0.94873046875q0,0.509765625-0.4248046875,0.75048828125t-0.94873046875,0.35400390625t-0.9912109375,0.11328125l-0.52392578125,0q-1.6142578125,0-3.35595703125-0.11328125t-3.24267578125-0.11328125q-0.283203125,0.11328125-0.60888671875,0.0849609375t-0.58056640625-0.0283203125q0,4.248046875-0.0849609375,8.45361328125t-0.1982421875,8.36865234375q0,0.8212890625-1.03369140625,1.076171875t-1.96826171875,0.2548828125q-1.0478515625,0-1.65673828125-0.2548828125t-0.86376953125-0.83544921875t-0.3115234375-1.54345703125q-0.0283203125-0.5380859375-0.056640625-1.189453125q0-0.5380859375,0.0283203125-1.1611328125z M39.884208984375,53.9365234375q0-1.92578125,0.52392578125-3.7099609375t1.57177734375-3.18603515625t2.61962890625-2.2373046875t3.63916015625-0.83544921875q1.2744140625,0,2.81787109375,0.38232421875t2.90283203125,1.1328125t2.265625,1.91162109375t0.90625,2.662109375q0,0.7080078125-0.24072265625,1.076171875t-0.97705078125,0.3681640625l-0.3115234375-0.056640625q0.8212890625,2.208984375,1.416015625,4.53125t1.1611328125,4.64453125q0.2265625,0.453125,0.33984375,0.80712890625t0.11328125,0.69384765625q0,0.453125-0.2548828125,0.75048828125t-0.66552734375,0.43896484375t-0.849609375,0.1982421875t-0.77880859375,0.056640625q-1.2177734375,0-1.82666015625-0.4248046875t-0.8779296875-1.1611328125t-0.32568359375-1.65673828125t-0.2265625-1.85498046875q-0.33984375,1.1044921875-0.89208984375,2.15234375t-1.302734375,1.88330078125t-1.77001953125,1.3310546875t-2.2939453125,0.49560546875q-1.869140625,0-3.1435546875-1.076171875t-2.05322265625-2.64794921875t-1.1328125-3.35595703125t-0.35400390625-3.3134765625z M43.905693359375,53.5400390625q0,1.0478515625,0.1416015625,2.208984375t0.46728515625,2.2939453125t0.83544921875,2.13818359375t1.2744140625,1.77001953125q1.3876953125-1.5009765625,2.05322265625-3.6533203125t1.189453125-4.14892578125t1.189453125-3.4267578125t2.05322265625-1.43017578125q0.8779296875,0,1.47265625,0.3115234375q-0.283203125-0.7080078125-0.9345703125-1.37353515625t-1.45849609375-1.2177734375t-1.6708984375-0.90625t-1.62841796875-0.35400390625q-0.2265625,0-0.52392578125,0.07080078125t-0.46728515625,0.01416015625q-1.1611328125,0.33984375-1.91162109375,1.17529296875t-1.2177734375,1.96826171875t-0.66552734375,2.322265625t-0.1982421875,2.2373046875z M64.42857421875,65.4345703125l0.5947265625-0.7080078125q-0.11328125-4.7578125-0.2548828125-9.4873046875t-0.1416015625-9.40234375q0-5.8056640625,0.69384765625-11.22900390625t1.37353515625-11.11572265625q0.056640625-0.33984375,0.32568359375-0.55224609375t0.66552734375-0.35400390625t0.80712890625-0.1982421875t0.75048828125-0.056640625q0.453125,0,1.1328125,0.169921875t1.359375,0.9912109375q0,0.283203125,0.04248046875,0.49560546875t0.04248046875,0.49560546875q0,2.15234375-0.58056640625,4.6162109375t-0.77880859375,4.7294921875q-0.2265625,2.775390625-0.3115234375,5.494140625t-0.0849609375,5.5224609375l0.056640625,2.4921875q0.56640625-0.7080078125,1.6142578125-1.8125t2.265625-2.13818359375t2.435546875-1.77001953125t2.208984375-0.736328125q1.5009765625,0,2.08154296875,0.849609375t0.58056640625,2.2373046875q0,1.2744140625-0.55224609375,2.662109375t-1.4443359375,2.70458984375t-2.02490234375,2.36474609375t-2.2373046875,1.5576171875q1.5009765625,1.869140625,3.07275390625,3.568359375t3.44091796875,3.2001953125l0,0.6513671875q-0.056640625,0.283203125-0.35400390625,0.4248046875t-0.6513671875,0.2265625t-0.69384765625,0.12744140625t-0.56640625,0.04248046875q-1.3876953125,0-2.67626953125-0.8212890625t-2.4072265625-2.0107421875t-2.10986328125-2.5205078125t-1.8125-2.322265625q0.169921875,3.2568359375,0.38232421875,6.49951171875t0.21240234375,6.49951171875q0,0.396484375-0.35400390625,0.66552734375t-0.8212890625,0.41064453125t-0.94873046875,0.1982421875t-0.79296875,0.056640625q-1.6708984375,0-2.36474609375-0.60888671875t-1.17529296875-2.10986328125z M70.23423828125,52.095703125q0.7080078125,0,1.68505859375-0.60888671875t2.02490234375-1.51513671875t1.9541015625-1.91162109375t1.45849609375-1.91162109375t0.55224609375-1.45849609375t-0.7646484375-0.49560546875q-0.283203125,0-1.1611328125,0.8212890625t-1.9541015625,2.0107421875t-2.15234375,2.5771484375t-1.642578125,2.4921875z M87.358681640625,55.09765625q0-1.982421875,0.43896484375-4.6728515625t1.48681640625-5.09765625t2.76123046875-4.09228515625t4.31884765625-1.68505859375q2.435546875,0,3.6533203125,1.40185546875t1.2177734375,3.78076171875q0,1.5576171875-0.58056640625,3.41259765625t-1.65673828125,3.51171875t-2.548828125,2.76123046875t-3.28515625,1.1044921875l-0.736328125-0.056640625q0,0.7646484375,0.2265625,2.05322265625t0.66552734375,2.56298828125t1.1328125,2.2373046875t1.68505859375,0.962890625q1.4443359375,0,2.775390625-1.1611328125t2.5205078125-2.5771484375t2.208984375-2.5771484375t1.869140625-1.1611328125q0.453125,0,0.9345703125,0.1416015625t0.5380859375,0.79296875q0,0.396484375-0.21240234375,0.6513671875t-0.38232421875,0.56640625q-0.8779296875,1.5009765625-1.91162109375,2.8603515625t-2.33642578125,2.4638671875t-2.84619140625,1.74169921875t-3.41259765625,0.63720703125q-2.435546875,0-4.0498046875-0.86376953125t-2.60546875-2.322265625t-1.43017578125-3.3701171875t-0.43896484375-4.00732421875z M92.428017578125,52.9453125l0.79296875,0.7080078125q0.56640625,0.509765625,1.1328125,0.2265625t1.01953125-1.03369140625t0.83544921875-1.85498046875t0.6796875-2.265625t0.43896484375-2.265625t0.1416015625-1.8408203125l0-0.962890625t-0.0849609375-1.01953125t-0.29736328125-0.80712890625t-0.66552734375-0.41064453125q-0.1416015625-0.0283203125-0.2548828125-0.0283203125q-0.962890625,0-1.642578125,1.2177734375q-0.736328125,1.359375-1.189453125,3.29931640625t-0.6513671875,3.97900390625t-0.2548828125,3.05859375z"/><path fill="#bdcfdb" d="M115.1911328125,40.7734375q0-1.025390625,0.09521484375-2.666015625t0.22705078125-3.3837890625t0.32958984375-3.30322265625t0.43212890625-2.39501953125q0.087890625-0.3662109375,0.41748046875-0.439453125t0.66650390625-0.0732421875q0.4541015625,0,0.78369140625,0.1611328125t0.32958984375,0.703125q0,2.666015625-0.32958984375,5.33935546875t-0.35888671875,5.33935546875q0.4541015625-0.6884765625,1.171875-1.03271484375t1.5234375-0.34423828125q1.11328125,0,1.9189453125,0.4541015625t1.3037109375,1.171875t0.73974609375,1.66259765625t0.24169921875,1.92626953125q0,0.5419921875-0.10986328125,1.35498046875t-0.32958984375,1.7138671875t-0.556640625,1.787109375t-0.79833984375,1.58935546875t-1.06201171875,1.13525390625t-1.318359375,0.43212890625q-0.146484375,0-0.38818359375-0.0439453125t-0.4833984375-0.1318359375t-0.40283203125-0.22705078125t-0.1611328125-0.34423828125q0-0.234375,0.28564453125-0.32958984375t0.46142578125-0.09521484375q0.6591796875-0.29296875,1.171875-1.22314453125t0.85693359375-2.04345703125t0.52001953125-2.20458984375t0.17578125-1.77978515625q0-0.3955078125-0.1171875-1.0546875t-0.35888671875-1.3037109375t-0.6591796875-1.11328125t-0.98876953125-0.46875q-0.6884765625,0-1.0986328125,0.71044921875t-0.64453125,1.6552734375t-0.31494140625,1.9482421875t-0.08056640625,1.57470703125q0,0.3662109375,0.12451171875,0.72509765625t0.28564453125,0.7177734375t0.28564453125,0.732421875t0.12451171875,0.73974609375q0,0.17578125-0.15380859375,0.29296875t-0.35888671875,0.1904296875t-0.43212890625,0.09521484375t-0.34423828125,0.02197265625q-0.8349609375,0-1.1572265625-0.3955078125t-0.556640625-1.11328125q-0.5126953125-1.6259765625-0.71044921875-3.30322265625t-0.19775390625-3.36181640625z M127.38844726563,45.314453125q0-0.8349609375,0.21240234375-1.72119140625t0.673828125-1.5966796875t1.16455078125-1.1572265625t1.69921875-0.44677734375q0.7470703125,0,1.57470703125,0.25634765625t1.51611328125,0.732421875t1.12060546875,1.16455078125t0.43212890625,1.5380859375q0,1.025390625-0.37353515625,1.9482421875t-1.04736328125,1.64794921875t-1.57470703125,1.142578125t-1.95556640625,0.41748046875q-0.8642578125,0-1.5087890625-0.31494140625t-1.07666015625-0.84228515625t-0.64453125-1.2451171875t-0.21240234375-1.5234375z M129.54176757812,45.28515625q0,0.263671875,0.08056640625,0.7763671875t0.24169921875,1.00341796875t0.41748046875,0.849609375t0.62255859375,0.32958984375q0.7763671875-0.087890625,1.28173828125-0.50537109375t0.8203125-1.01806640625t0.439453125-1.3037109375t0.12451171875-1.3330078125q0-0.8056640625-0.31494140625-1.34765625t-1.03271484375-0.87890625q0,0.029296875,0.029296875,0.029296875t0.029296875-0.029296875l-0.3662109375-0.087890625q-0.146484375-0.05859375-0.35888671875-0.1318359375t-0.41748046875-0.322265625q-0.5712890625,0.205078125-0.88623046875,0.52734375t-0.47607421875,0.78369140625t-0.19775390625,1.10595703125t-0.03662109375,1.552734375z M138.19416015625,45.314453125q0-0.8349609375,0.21240234375-1.72119140625t0.673828125-1.5966796875t1.16455078125-1.1572265625t1.69921875-0.44677734375q0.7470703125,0,1.57470703125,0.25634765625t1.51611328125,0.732421875t1.12060546875,1.16455078125t0.43212890625,1.5380859375q0,1.025390625-0.37353515625,1.9482421875t-1.04736328125,1.64794921875t-1.57470703125,1.142578125t-1.95556640625,0.41748046875q-0.8642578125,0-1.5087890625-0.31494140625t-1.07666015625-0.84228515625t-0.64453125-1.2451171875t-0.21240234375-1.5234375z M140.34748046875,45.28515625q0,0.263671875,0.08056640625,0.7763671875t0.24169921875,1.00341796875t0.41748046875,0.849609375t0.62255859375,0.32958984375q0.7763671875-0.087890625,1.28173828125-0.50537109375t0.8203125-1.01806640625t0.439453125-1.3037109375t0.12451171875-1.3330078125q0-0.8056640625-0.31494140625-1.34765625t-1.03271484375-0.87890625q0,0.029296875,0.029296875,0.029296875t0.029296875-0.029296875l-0.3662109375-0.087890625q-0.146484375-0.05859375-0.35888671875-0.1318359375t-0.41748046875-0.322265625q-0.5712890625,0.205078125-0.88623046875,0.52734375t-0.47607421875,0.78369140625t-0.19775390625,1.10595703125t-0.03662109375,1.552734375z M149.29284179687,50.9833984375l0.3076171875-0.3662109375q-0.05859375-2.4609375-0.1318359375-4.9072265625t-0.0732421875-4.86328125q0-3.0029296875,0.35888671875-5.80810546875t0.71044921875-5.74951171875q0.029296875-0.17578125,0.16845703125-0.28564453125t0.34423828125-0.18310546875t0.41748046875-0.1025390625t0.38818359375-0.029296875q0.234375,0,0.5859375,0.087890625t0.703125,0.5126953125q0,0.146484375,0.02197265625,0.25634765625t0.02197265625,0.25634765625q0,1.11328125-0.30029296875,2.3876953125t-0.40283203125,2.4462890625q-0.1171875,1.435546875-0.1611328125,2.841796875t-0.0439453125,2.8564453125l0.029296875,1.2890625q0.29296875-0.3662109375,0.8349609375-0.9375t1.171875-1.10595703125t1.259765625-0.91552734375t1.142578125-0.380859375q0.7763671875,0,1.07666015625,0.439453125t0.30029296875,1.1572265625q0,0.6591796875-0.28564453125,1.376953125t-0.7470703125,1.39892578125t-1.04736328125,1.22314453125t-1.1572265625,0.8056640625q0.7763671875,0.966796875,1.58935546875,1.845703125t1.77978515625,1.6552734375l0,0.3369140625q-0.029296875,0.146484375-0.18310546875,0.2197265625t-0.3369140625,0.1171875t-0.35888671875,0.06591796875t-0.29296875,0.02197265625q-0.7177734375,0-1.38427734375-0.4248046875t-1.2451171875-1.0400390625t-1.09130859375-1.3037109375t-0.9375-1.201171875q0.087890625,1.6845703125,0.19775390625,3.36181640625t0.10986328125,3.36181640625q0,0.205078125-0.18310546875,0.34423828125t-0.4248046875,0.21240234375t-0.49072265625,0.1025390625t-0.41015625,0.029296875q-0.8642578125,0-1.22314453125-0.31494140625t-0.60791015625-1.09130859375z M152.29577148437,44.083984375q0.3662109375,0,0.87158203125-0.31494140625t1.04736328125-0.78369140625t1.0107421875-0.98876953125t0.75439453125-0.98876953125t0.28564453125-0.75439453125t-0.3955078125-0.25634765625q-0.146484375,0-0.6005859375,0.4248046875t-1.0107421875,1.0400390625t-1.11328125,1.3330078125t-0.849609375,1.2890625z"/></svg>
